<svg class="buoy" viewBox="-3 -3 30 30" xmlns="http://www.w3.org/2000/svg"><g opacity=".25" transform="translate(0 .8)"><path d="M4.929 4.929A10 10 0 0 1 19.071 4.929L15.182 8.818A4.5 4.5 0 0 0 8.818 8.818Z" fill="#24405C" stroke="#24405C" stroke-width="4" stroke-linejoin="round"/><path d="M19.071 4.929A10 10 0 0 1 19.071 19.071L15.182 15.182A4.5 4.5 0 0 0 15.182 8.818Z" fill="#24405C" stroke="#24405C" stroke-width="4" stroke-linejoin="round"/><path d="M19.071 19.071A10 10 0 0 1 4.929 19.071L8.818 15.182A4.5 4.5 0 0 0 15.182 15.182Z" fill="#24405C" stroke="#24405C" stroke-width="4" stroke-linejoin="round"/><path d="M4.929 19.071A10 10 0 0 1 4.929 4.929L8.818 8.818A4.5 4.5 0 0 0 8.818 15.182Z" fill="#24405C" stroke="#24405C" stroke-width="4" stroke-linejoin="round"/></g><path d="M4.929 4.929A10 10 0 0 1 19.071 4.929L15.182 8.818A4.5 4.5 0 0 0 8.818 8.818Z" fill="#fff" stroke="#fff" stroke-width="4" stroke-linejoin="round"/><path d="M19.071 4.929A10 10 0 0 1 19.071 19.071L15.182 15.182A4.5 4.5 0 0 0 15.182 8.818Z" fill="#fff" stroke="#fff" stroke-width="4" stroke-linejoin="round"/><path d="M19.071 19.071A10 10 0 0 1 4.929 19.071L8.818 15.182A4.5 4.5 0 0 0 15.182 15.182Z" fill="#fff" stroke="#fff" stroke-width="4" stroke-linejoin="round"/><path d="M4.929 19.071A10 10 0 0 1 4.929 4.929L8.818 8.818A4.5 4.5 0 0 0 8.818 15.182Z" fill="#fff" stroke="#fff" stroke-width="4" stroke-linejoin="round"/><path d="M4.929 4.929A10 10 0 0 1 19.071 4.929L15.182 8.818A4.5 4.5 0 0 0 8.818 8.818Z" fill="#F2AE3A" stroke="#1B2733" stroke-width="1.4" stroke-linejoin="round"/><path d="M19.071 4.929A10 10 0 0 1 19.071 19.071L15.182 15.182A4.5 4.5 0 0 0 15.182 8.818Z" fill="#3F6496" stroke="#1B2733" stroke-width="1.4" stroke-linejoin="round"/><path d="M19.071 19.071A10 10 0 0 1 4.929 19.071L8.818 15.182A4.5 4.5 0 0 0 15.182 15.182Z" fill="#F2AE3A" stroke="#1B2733" stroke-width="1.4" stroke-linejoin="round"/><path d="M4.929 19.071A10 10 0 0 1 4.929 4.929L8.818 8.818A4.5 4.5 0 0 0 8.818 15.182Z" fill="#3F6496" stroke="#1B2733" stroke-width="1.4" stroke-linejoin="round"/></svg>